<?xml version="1.0" encoding="UTF-8" standalone="no"?>
<!-- Created with Inkscape (http://www.inkscape.org/) -->

<svg
   xmlns:dc="http://purl.org/dc/elements/1.1/"
   xmlns:cc="http://creativecommons.org/ns#"
   xmlns:rdf="http://www.w3.org/1999/02/22-rdf-syntax-ns#"
   xmlns:svg="http://www.w3.org/2000/svg"
   xmlns="http://www.w3.org/2000/svg"
   xmlns:sodipodi="http://sodipodi.sourceforge.net/DTD/sodipodi-0.dtd"
   xmlns:inkscape="http://www.inkscape.org/namespaces/inkscape"
   version="1.1"
   id="svg850"
   width="112"
   height="56"
   viewBox="0 0 112 56"
   sodipodi:docname="ICON_BOTLY.svg"
   inkscape:version="0.92.2 5c3e80d, 2017-08-06">
  <metadata
     id="metadata856">
    <rdf:RDF>
      <cc:Work
         rdf:about="">
        <dc:format>image/svg+xml</dc:format>
        <dc:type
           rdf:resource="http://purl.org/dc/dcmitype/StillImage" />
        <dc:title></dc:title>
      </cc:Work>
    </rdf:RDF>
  </metadata>
  <defs
     id="defs854" />
  <sodipodi:namedview
     pagecolor="#000000"
     bordercolor="#666666"
     borderopacity="1"
     objecttolerance="10"
     gridtolerance="10"
     guidetolerance="10"
     inkscape:pageopacity="0"
     inkscape:pageshadow="2"
     inkscape:window-width="1920"
     inkscape:window-height="1036"
     id="namedview852"
     showgrid="false"
     inkscape:pagecheckerboard="true"
     inkscape:zoom="9.078746"
     inkscape:cx="50.545254"
     inkscape:cy="31.107339"
     inkscape:window-x="3200"
     inkscape:window-y="0"
     inkscape:window-maximized="1"
     inkscape:current-layer="svg850" />
  <path
     style="fill:#000000;fill-opacity:0.73333333;stroke-width:0.02213346"
     d="m 68.123047,2.0839844 c -0.47338,-0.017154 -0.946006,-5.804e-4 -1.421875,0.0625 -0.524563,0.068614 -1.041712,0.1544402 -1.550781,0.3027344 -0.50907,0.148294 -1.003819,0.348978 -1.486329,0.5703124 -0.88091,0.4094691 -1.693552,0.9830011 -2.40625,1.6425782 -0.329787,0.3054417 -0.635441,0.636099 -0.912109,0.9902344 -0.334215,0.4271756 -0.650415,0.8622815 -0.916015,1.3359374 -0.46259,0.8322181 -0.819418,1.7476087 -1.009766,2.6816407 -0.188135,0.9251791 -0.268482,1.8835471 -0.177734,2.8242191 0.09296,0.953952 0.288574,1.882239 0.658203,2.767578 0.210267,0.502429 0.435181,0.990535 0.720703,1.453125 0.283308,0.455949 0.611489,0.889619 0.958984,1.296875 0.64187,0.750324 1.428201,1.400566 2.271484,1.914062 0.45595,0.276669 0.936372,0.493378 1.427735,0.699219 0.398402,0.166001 0.80824,0.298577 1.226562,0.400391 0.909686,0.221334 1.866489,0.322911 2.802735,0.267578 0.951739,-0.05533 1.906849,-0.229978 2.798828,-0.566407 0.498003,-0.188133 0.990275,-0.40484 1.455078,-0.666015 0.127499,-0.07209 0.24681,-0.155555 0.369141,-0.234375 0.255806,0.267485 0.511771,0.534693 0.767578,0.802734 0.810084,0.847712 1.619342,1.695257 2.43164,2.542969 0.183708,0.192561 0.37098,0.387517 0.554688,0.580078 0.221334,0.232401 0.614351,0.401952 0.9375,0.388672 0.351922,-0.01549 0.684918,-0.134137 0.939453,-0.388672 l 1.115234,-1.115234 c 0.230188,-0.230188 0.401952,-0.609665 0.388672,-0.939453 -0.01549,-0.356349 -0.138564,-0.676326 -0.388672,-0.9375 -0.513496,-0.53563 -1.025566,-1.071532 -1.539062,-1.609375 -0.733142,-0.767196 -1.467686,-1.535195 -2.201172,-2.302735 0.501545,-0.775093 0.886228,-1.642945 1.136719,-2.529297 0.146081,-0.513496 0.228261,-1.035463 0.296875,-1.564453 0.05312,-0.413895 0.07526,-0.829984 0.06641,-1.246094 C 77.41758,10.560501 77.261952,9.5941912 76.960938,8.6933594 76.653282,7.7770341 76.223647,6.892379 75.650391,6.1132812 75.344815,5.6987243 75.01884,5.2975777 74.658203,4.9296875 74.646148,4.91667 74.637727,4.9012879 74.625,4.8886719 73.932223,4.1981079 73.122058,3.5952732 72.25,3.1503906 71.400075,2.7187882 70.485854,2.3876162 69.542969,2.2304688 69.070419,2.151895 68.596426,2.1011378 68.123047,2.0839844 Z m -0.300781,2.6425781 c 0.31311,0 0.62599,0.027913 0.9375,0.0625 0.602925,0.096039 1.195143,0.2580784 1.763672,0.4824219 0.55055,0.2467577 1.070661,0.5486998 1.554687,0.90625 0.231708,0.1873665 0.459719,0.3795315 0.669922,0.5878906 0.210203,0.210203 0.400985,0.4382135 0.587891,0.6699219 0.357549,0.484276 0.659492,1.0054507 0.90625,1.5546875 0.224322,0.5682744 0.386403,1.1594316 0.482421,1.7636716 0.06917,0.623019 0.06917,1.251982 0,1.875 -0.09602,0.602828 -0.258136,1.193275 -0.482421,1.761719 -0.246185,0.549322 -0.547805,1.069619 -0.904297,1.552734 -0.01424,0.01759 -0.03055,0.03331 -0.04492,0.05078 -0.0076,0.0078 -0.0181,0.01347 -0.02539,0.02148 -0.0085,0.0092 -0.01315,0.02181 -0.02148,0.03125 -0.351416,0.419908 -0.738782,0.807076 -1.164063,1.152344 -0.485536,0.358984 -1.007657,0.664588 -1.558593,0.912109 -0.572058,0.225817 -1.16695,0.388595 -1.775391,0.484375 -0.615259,0.06744 -1.236304,0.06744 -1.851563,0 -0.60699,-0.09578 -1.201202,-0.258592 -1.773437,-0.484375 -0.55235,-0.247541 -1.07518,-0.55307 -1.560547,-0.912109 -0.458273,-0.372053 -0.875994,-0.789774 -1.248047,-1.248047 -0.359039,-0.48561 -0.664568,-1.009518 -0.912109,-1.560547 -0.22576,-0.571972 -0.388611,-1.165095 -0.484375,-1.773437 -0.06744,-0.615259 -0.06744,-1.236304 0,-1.851563 0.0958,-0.607088 0.258535,-1.2030709 0.484375,-1.7753906 C 61.649872,8.437972 61.955476,7.9169275 62.31446,7.4316346 62.688832,6.9705049 63.108689,6.5495669 63.570319,6.1757752 64.05369,5.8192828 64.575045,5.517663 65.123054,5.2714784 65.691243,5.0472115 66.28063,4.8850591 66.884773,4.7890565 c 0.311509,-0.034587 0.624389,-0.0625 0.9375,-0.0625 z m 0.002,2.4648437 c -0.343069,0.015493 -0.698459,0.1274971 -0.9375,0.3886719 -0.239042,0.2589615 -0.390625,0.5808912 -0.390625,0.9394531 v 1.8437498 h -1.066406 -0.777344 c -0.340856,0 -0.696246,0.147417 -0.9375,0.388672 -0.230188,0.230188 -0.403905,0.609665 -0.390625,0.939453 0.01549,0.343069 0.12945,0.698459 0.390625,0.9375 0.261175,0.239042 0.578938,0.390625 0.9375,0.390625 h 1.84375 v 1.064453 0.777344 c 0,0.340855 0.14937,0.696245 0.390625,0.9375 0.230188,0.230188 0.607711,0.403905 0.9375,0.390625 0.343068,-0.01549 0.700412,-0.12945 0.939453,-0.390625 0.239041,-0.258961 0.388672,-0.578938 0.388672,-0.9375 v -1.841797 h 1.064453 0.777344 c 0.340855,0 0.698198,-0.14937 0.939453,-0.390625 0.230188,-0.230188 0.401952,-0.607711 0.388672,-0.9375 -0.01549,-0.343068 -0.127497,-0.700412 -0.388672,-0.939453 -0.258962,-0.239041 -0.580891,-0.388672 -0.939453,-0.388672 H 69.152344 V 9.296875 8.5195312 c 0,-0.3408551 -0.147417,-0.6981984 -0.388672,-0.9394531 -0.230188,-0.230188 -0.609665,-0.4019518 -0.939453,-0.3886719 z"
     id="path1017"
     inkscape:connector-curvature="0" />
  <path
     style="fill:#000000;fill-opacity:0.73333333;stroke-width:0.02213346"
     d="m 94.787109,2.0839844 c -0.473379,-0.017154 -0.947958,-5.804e-4 -1.423828,0.0625 -0.524563,0.068614 -1.039758,0.1544402 -1.548828,0.3027344 -0.509069,0.148294 -1.005772,0.348978 -1.488281,0.5703124 -0.880912,0.4094691 -1.693553,0.9830011 -2.40625,1.6425782 -0.329789,0.3054417 -0.633488,0.636099 -0.910156,0.9902344 -0.334216,0.4271756 -0.652368,0.8622815 -0.917969,1.3359374 -0.462589,0.8322181 -0.817465,1.7476087 -1.007813,2.6816407 -0.188134,0.9251791 -0.268481,1.8835471 -0.177734,2.8242191 0.09296,0.953952 0.288574,1.882239 0.658203,2.767578 0.210268,0.502429 0.435182,0.990535 0.720703,1.453125 0.283309,0.455949 0.611489,0.889619 0.958985,1.296875 0.64187,0.750324 1.426246,1.400566 2.269531,1.914062 0.455949,0.276669 0.936371,0.493378 1.427734,0.699219 0.398403,0.166001 0.80824,0.298577 1.226563,0.400391 0.909685,0.221334 1.868442,0.322911 2.804687,0.267578 0.951739,-0.05533 1.904897,-0.229978 2.796875,-0.566407 0.498003,-0.188133 0.99223,-0.40484 1.457031,-0.666015 0.127019,-0.07182 0.245302,-0.155875 0.367188,-0.234375 0.255807,0.267485 0.51177,0.534693 0.76758,0.802734 0.81008,0.847712 1.62129,1.695257 2.43359,2.542969 0.18371,0.192561 0.36903,0.387517 0.55274,0.580078 0.22133,0.232401 0.6163,0.401952 0.93945,0.388672 0.35192,-0.01549 0.68296,-0.134137 0.9375,-0.388672 l 1.11523,-1.115234 c 0.23019,-0.230188 0.40391,-0.609665 0.39063,-0.939453 -0.0155,-0.356349 -0.14052,-0.676326 -0.39063,-0.9375 -0.51349,-0.53563 -1.02361,-1.071532 -1.53711,-1.609375 -0.73317,-0.767226 -1.4696,-1.535164 -2.20312,-2.302735 0.50154,-0.775093 0.88818,-1.642945 1.13867,-2.529297 0.14608,-0.513496 0.22631,-1.035463 0.29492,-1.564453 0.0531,-0.413895 0.0753,-0.829984 0.0664,-1.246094 -0.0199,-0.947311 -0.17359,-1.9136208 -0.47461,-2.8144526 -0.30766,-0.9163253 -0.73729,-1.8009804 -1.31055,-2.5800782 -0.31077,-0.4216031 -0.64173,-0.8301737 -1.00976,-1.203125 -0.007,-0.00675 -0.0109,-0.014848 -0.0176,-0.021484 h -0.002 C 100.5926,4.1985281 99.783743,3.5950566 98.912109,3.1503906 98.062185,2.7187882 97.147964,2.3876162 96.205078,2.2304688 95.732529,2.151895 95.260489,2.1011378 94.787109,2.0839844 Z m -0.300781,2.6425781 c 0.314303,0 0.62677,0.027649 0.939453,0.0625 0.602176,0.09606 1.191916,0.2583696 1.759766,0.4824219 0.55015,0.2465556 1.070956,0.5490617 1.554687,0.90625 0.232057,0.1875916 0.45943,0.3792451 0.669922,0.5878906 0.208306,0.208306 0.398569,0.4346375 0.583985,0.6640625 0.359059,0.4854328 0.664489,1.0077463 0.912109,1.5585937 0.22494,0.5694872 0.38636,1.1619688 0.48242,1.7675778 0.0689,0.621669 0.0689,1.249426 0,1.871094 -0.0961,0.604189 -0.25752,1.195968 -0.48242,1.765625 -0.24704,0.550934 -0.55216,1.072356 -0.910156,1.556641 -0.01162,0.01432 -0.0254,0.02678 -0.03711,0.04101 -0.009,0.009 -0.0208,0.01606 -0.0293,0.02539 -0.0095,0.01028 -0.01417,0.02461 -0.02344,0.03516 -0.350508,0.418313 -0.736282,0.804291 -1.160156,1.148438 -0.485589,0.359044 -1.009539,0.664555 -1.560547,0.912109 -0.57197,0.225783 -1.165093,0.38859 -1.773438,0.484375 -0.617073,0.06776 -1.238411,0.06793 -1.855468,0 -0.606338,-0.09582 -1.199844,-0.258827 -1.771485,-0.484375 -0.549373,-0.246208 -1.06958,-0.549714 -1.552734,-0.90625 -0.463651,-0.375674 -0.88619,-0.797942 -1.261719,-1.261719 -0.356492,-0.48337 -0.658112,-1.004725 -0.904297,-1.552734 -0.224267,-0.568189 -0.386419,-1.157576 -0.482422,-1.761719 -0.06917,-0.623018 -0.06917,-1.251981 0,-1.875 0.09604,-0.602925 0.258079,-1.1951429 0.482422,-1.7636716 0.246165,-0.5492287 0.547859,-1.0677398 0.904297,-1.5507813 0.377574,-0.4663016 0.802909,-0.890376 1.269531,-1.2675781 0.481395,-0.3542841 0.999566,-0.6553763 1.544922,-0.9003906 0.567587,-0.2240523 1.156289,-0.3863617 1.759766,-0.4824219 0.312788,-0.034874 0.626997,-0.0625 0.941406,-0.0625 z m -3.169922,5.6367185 c -0.340855,0 -0.698198,0.147417 -0.939453,0.388672 -0.230188,0.230188 -0.401952,0.609665 -0.388672,0.939453 0.01549,0.343069 0.127497,0.698459 0.388672,0.9375 0.261175,0.239042 0.580891,0.390625 0.939453,0.390625 h 2.146485 3.417968 0.777344 c 0.340855,0 0.696245,-0.14937 0.9375,-0.390625 0.230188,-0.230188 0.403905,-0.607711 0.390625,-0.9375 -0.01549,-0.343068 -0.12945,-0.700412 -0.390625,-0.939453 -0.258961,-0.239041 -0.578938,-0.388672 -0.9375,-0.388672 H 95.509766 92.09375 Z"
     id="path1017-3"
     inkscape:connector-curvature="0" />
  <path
     style="fill:#000000;fill-opacity:0.73333333;stroke-width:0.6287716"
     d="m 7.5117188,31.992188 c -0.6719991,0.01179 -1.2734376,0.554063 -1.2734376,1.308593 v 13.455078 c 0,1.00604 1.0689388,1.635833 1.9492188,1.132813 l 4.722656,-2.746094 v 1.613281 c 0,1.00604 1.068939,1.635833 1.949219,1.132813 l 4.724609,-2.748047 v 1.615234 c 0,1.00604 1.068939,1.635833 1.949219,1.132813 l 11.568359,-6.728516 c 0.88028,-0.50302 0.88028,-1.698152 0,-2.201172 L 21.533203,32.169922 c -0.88028,-0.50302 -1.949219,0.124819 -1.949219,1.130859 v 1.640625 l -4.724609,-2.771484 c -0.88028,-0.50302 -1.949219,0.124819 -1.949219,1.130859 v 1.640625 L 8.1875,32.169922 C 7.96743,32.044167 7.7357184,31.988258 7.5117188,31.992188 Z"
     id="path1436-5-1"
     inkscape:connector-curvature="0" />
  <path
     id="path1436-5"
     d="m 44.45957,46.756482 c 0,1.00604 1.068912,1.63481 1.949192,1.13179 L 57.97816,41.160411 c 0.88028,-0.50302 0.88028,-1.69768 0,-2.2007 l -11.569398,-6.79073 c -0.88028,-0.50302 -1.949192,0.12575 -1.949192,1.13179 0,13.455711 0,0 0,13.455711 z"
     inkscape:connector-curvature="0"
     sodipodi:nodetypes="ccccccc"
     style="stroke-width:0.6287716;fill:#000000;fill-opacity:0.73333335" />
  <path
     style="fill:#000000;fill-opacity:0.73333333;stroke-width:0.23601758"
     inkscape:connector-curvature="0"
     d="m 42.127361,9.9691138 c -1.976647,0 -3.579442,1.6023232 -3.579442,3.5794432 0,1.977119 1.602795,3.579678 3.579442,3.579678 1.97712,0 3.579679,-1.602559 3.579679,-3.579678 0,-1.97712 -1.602559,-3.5794432 -3.579679,-3.5794432 z M 51.722657,6.698382 47.658434,5.4238871 47.142971,3.8140111 C 46.891613,2.994322 46.45734,2.8748971 45.577231,2.8748971 h -6.899975 c -0.879873,0 -1.314146,0.1194249 -1.56574,0.939114 L 36.596289,5.4238871 32.53183,6.698382 C 31.675559,6.9372318 30.938712,7.7300149 30.938712,8.6101245 V 19.52287 c 0,0.880109 0.713009,1.593119 1.593118,1.593119 h 19.190827 c 0.880109,0 1.593118,-0.71301 1.593118,-1.593119 V 8.6098885 c 0,-0.8798736 -0.736611,-1.6728927 -1.593118,-1.9115065 z m -9.595296,12.147353 c -2.925438,0 -5.296942,-2.37174 -5.296942,-5.297178 0,-2.925438 2.37174,-5.2969432 5.296942,-5.2969432 2.925675,0 5.297179,2.3717412 5.297179,5.2969432 0,2.925674 -2.371504,5.297178 -5.297179,5.297178 z m 9.25189,-9.4456596 c -0.458346,0 -0.829838,-0.3714917 -0.829838,-0.8300739 0,-0.4581101 0.371256,-0.8298378 0.829838,-0.8298378 0.458582,0 0.829838,0.3714917 0.829838,0.8298378 0,0.4585822 -0.371256,0.8300739 -0.829838,0.8300739 z"
     id="path1731" />
  <path
     id="path1885"
     d="m 95.524686,37.171458 c 2.081038,0 3.783706,-1.702667 3.783706,-3.783706 0,-2.081038 -1.702668,-3.783706 -3.783706,-3.783706 -2.081039,0 -3.783706,1.702668 -3.783706,3.783706 0,0.425667 0.07094,0.827686 0.212833,1.206056 l -3.499928,2.483058 c -0.638501,-0.52026 -1.489834,-0.851334 -2.388465,-0.851334 -2.081038,0 -3.783706,1.702668 -3.783706,3.783706 0,2.081038 1.702668,3.783706 3.783706,3.783706 0.898631,0 1.749964,-0.331074 2.388465,-0.851334 l 3.47628,2.483058 c -0.118241,0.37837 -0.189185,0.780389 -0.189185,1.206056 0,2.081038 1.702667,3.783706 3.783706,3.783706 2.081038,0 3.783706,-1.702668 3.783706,-3.783706 0,-2.081039 -1.702668,-3.783706 -3.783706,-3.783706 -0.969575,0 -1.868205,0.37837 -2.530354,0.993223 L 89.588997,41.40448 c 0.165537,-0.425667 0.26013,-0.898631 0.26013,-1.395242 0,-0.496611 -0.09459,-0.969575 -0.26013,-1.395242 l 3.405335,-2.435761 c 0.662149,0.614853 1.560779,0.993223 2.530354,0.993223 z m 0,-5.675559 c 1.040519,0 1.891853,0.851334 1.891853,1.891853 0,1.040519 -0.851334,1.891853 -1.891853,1.891853 -1.040519,0 -1.891853,-0.851334 -1.891853,-1.891853 0,-1.040519 0.851334,-1.891853 1.891853,-1.891853 z M 86.06542,41.901091 c -1.040519,0 -1.891853,-0.851334 -1.891853,-1.891853 0,-1.040519 0.851334,-1.891853 1.891853,-1.891853 1.040519,0 1.891853,0.851334 1.891853,1.891853 0,1.040519 -0.851334,1.891853 -1.891853,1.891853 z m 9.459266,2.83778 c 1.040519,0 1.891853,0.851334 1.891853,1.891853 0,1.040519 -0.851334,1.891853 -1.891853,1.891853 -1.040519,0 -1.891853,-0.851334 -1.891853,-1.891853 0,-1.040519 0.851334,-1.891853 1.891853,-1.891853 z"
     inkscape:connector-curvature="0"
     style="fill:#000000;fill-opacity:0.73333333;stroke-width:0.23648164" />
</svg>
